<svg id="_0312_data_analytics" xmlns="http://www.w3.org/2000/svg" xmlns:xlink="http://www.w3.org/1999/xlink" viewBox="0 0 500 500" data-imageid="report-analysis-5-38" imageName="Report Analysis 5" class="illustrations_image" style="width: 151px;"><defs><style>.cls-1_report-analysis-5-38{fill:none;}.cls-1_report-analysis-5-38,.cls-2_report-analysis-5-38,.cls-3_report-analysis-5-38,.cls-4_report-analysis-5-38,.cls-5_report-analysis-5-38,.cls-6_report-analysis-5-38,.cls-7_report-analysis-5-38,.cls-8_report-analysis-5-38,.cls-9_report-analysis-5-38,.cls-10_report-analysis-5-38,.cls-11_report-analysis-5-38,.cls-12_report-analysis-5-38{stroke-width:0px;}.cls-2_report-analysis-5-38{fill:url(#linear-gradient);}.cls-3_report-analysis-5-38{isolation:isolate;opacity:.18;}.cls-3_report-analysis-5-38,.cls-12_report-analysis-5-38{fill:#68e1fd;}.cls-4_report-analysis-5-38{fill:url(#linear-gradient-4-report-analysis-5-38);}.cls-5_report-analysis-5-38{fill:url(#linear-gradient-2-report-analysis-5-38);}.cls-6_report-analysis-5-38{fill:url(#linear-gradient-3-report-analysis-5-38);}.cls-7_report-analysis-5-38{fill:url(#linear-gradient-5-report-analysis-5-38);}.cls-8_report-analysis-5-38{fill:url(#linear-gradient-6-report-analysis-5-38);}.cls-9_report-analysis-5-38{fill:#3e3e54;}.cls-10_report-analysis-5-38{fill:#fff;}.cls-11_report-analysis-5-38{fill:#ffb4a3;}</style><linearGradient id="linear-gradient-report-analysis-5-38" x1="683.89" y1="3879.6" x2="725.79" y2="3821.69" gradientTransform="translate(-480.98 4139.4) scale(1 -1)" gradientUnits="userSpaceOnUse"><stop offset=".02" stop-color="#fff" stop-opacity="0"/><stop offset=".32" stop-color="#fff" stop-opacity=".39"/><stop offset=".68" stop-color="#fff" stop-opacity=".68"/><stop offset="1" stop-color="#fff"/></linearGradient><linearGradient id="linear-gradient-2-report-analysis-5-38" x1="897.48" y1="4202.99" x2="874.49" y2="3782.98" gradientTransform="translate(-471 4173.82) scale(1 -1)" gradientUnits="userSpaceOnUse"><stop offset=".02" stop-color="#fff" stop-opacity="0"/><stop offset=".14" stop-color="#fff" stop-opacity=".06"/><stop offset=".32" stop-color="#fff" stop-opacity=".39"/><stop offset=".68" stop-color="#fff" stop-opacity=".68"/><stop offset="1" stop-color="#fff"/></linearGradient><linearGradient id="linear-gradient-3-report-analysis-5-38" x1="802.17" y1="4423.38" x2="779.17" y2="4003.37" gradientTransform="translate(-471 4173.82) scale(1 -1)" xlink:href="#linear-gradient-report-analysis-5-38"/><linearGradient id="linear-gradient-4-report-analysis-5-38" x1="604.09" y1="4325.04" x2="581.09" y2="3905.03" gradientTransform="translate(-471 4173.82) scale(1 -1)" xlink:href="#linear-gradient-report-analysis-5-38"/><linearGradient id="linear-gradient-5-report-analysis-5-38" x1="580.99" y1="4205.59" x2="558.01" y2="3785.58" gradientTransform="translate(-471 4173.82) scale(1 -1)" xlink:href="#linear-gradient-report-analysis-5-38"/><linearGradient id="linear-gradient-6-report-analysis-5-38" x1="644.45" y1="3817.17" x2="593.37" y2="3772.78" gradientTransform="translate(-480.98 4139.4) scale(1 -1)" gradientUnits="userSpaceOnUse"><stop offset="0" stop-color="#000" stop-opacity="0"/><stop offset=".99" stop-color="#000"/></linearGradient></defs><g id="background_report-analysis-5-38"><path class="cls-3_report-analysis-5-38 targetColor" d="M475.74,317.25c-8.18,15.42-23,27.46-27.1,44.43-1.78,7.32-1.36,15-2.24,22.5-3.22,26.25-22.9,48.13-46.37,60.53-.98.54-1.98,1.03-2.97,1.52-15.4,7.52-32.08,11.63-49.08,14.19-10.34,1.54-20.81,2.5-31.18,3.35-43.14,3.41-86.37,4.66-129.7,3.73-20.92-.42-42.25-1.42-61.93-8.36-1.01-.35-2-.72-3-1.12-15.97-6.21-30.13-16.37-42.68-28.02l-.57-.54c-18.72-17.49-34.18-38.61-44.19-62.19-14.3-33.67-16.81-71.19-7.11-106.46,5.91-20.96,16.25-40.96,17.89-62.61,1.2-16.32-2.64-32.85-.08-49.02,5.06-32.09,34.9-55.71,66.39-63.66,31.5-7.95,64.65-3.42,96.81,1.12,15.72,2.24,34.11,8.24,49.67,3.43,19.09-5.91,35.19-13.23,55.78-13.27,8.42,0,17.01.88,24.72,4.26,9.35,4.08,16.77,11.48,24.34,18.29,21.19,19.01,45.34,34.37,67,52.82,21.66,18.45,41.27,40.9,49.2,68.2,3.9,13.35,4.86,27.38,5.28,41.28.6,18.99-.01,38.83-8.88,55.59Z" style="fill: rgb(0, 0, 0);"/></g><g id="data_graphic_report-analysis-5-38"><rect class="cls-12_report-analysis-5-38 targetColor" x="129.48" y="203.27" width="253.73" height="180.7" rx="17.07" ry="17.07" style="fill: rgb(0, 0, 0);"/><rect class="cls-10_report-analysis-5-38" x="144.96" y="216.17" width="222.76" height="151.21"/><rect class="cls-12_report-analysis-5-38 targetColor" x="247.12" y="286.54" width="6.64" height="60.72" style="fill: rgb(0, 0, 0);"/><rect class="cls-12_report-analysis-5-38 targetColor" x="258.67" y="296.47" width="6.64" height="50.79" style="fill: rgb(0, 0, 0);"/><rect class="cls-12_report-analysis-5-38 targetColor" x="269.99" y="305.54" width="6.64" height="41.73" style="fill: rgb(0, 0, 0);"/><rect class="cls-12_report-analysis-5-38 targetColor" x="281.54" y="296.47" width="6.64" height="50.79" style="fill: rgb(0, 0, 0);"/><rect class="cls-12_report-analysis-5-38 targetColor" x="292.85" y="316.9" width="6.64" height="30.37" style="fill: rgb(0, 0, 0);"/><rect class="cls-12_report-analysis-5-38 targetColor" x="304.4" y="296.47" width="6.64" height="50.79" style="fill: rgb(0, 0, 0);"/><rect class="cls-12_report-analysis-5-38 targetColor" x="315.72" y="311.72" width="6.64" height="35.54" style="fill: rgb(0, 0, 0);"/><rect class="cls-12_report-analysis-5-38 targetColor" x="327.27" y="304.88" width="6.64" height="42.39" style="fill: rgb(0, 0, 0);"/><rect class="cls-12_report-analysis-5-38 targetColor" x="169.31" y="323.49" width="37.98" height="2.21" style="fill: rgb(0, 0, 0);"/><rect class="cls-12_report-analysis-5-38 targetColor" x="169.31" y="329.63" width="37.98" height="2.21" style="fill: rgb(0, 0, 0);"/><rect class="cls-12_report-analysis-5-38 targetColor" x="169.31" y="335.78" width="37.98" height="2.21" style="fill: rgb(0, 0, 0);"/><rect class="cls-12_report-analysis-5-38 targetColor" x="169.31" y="341.93" width="37.98" height="2.21" style="fill: rgb(0, 0, 0);"/><rect class="cls-12_report-analysis-5-38 targetColor" x="169.31" y="348.08" width="37.98" height="2.21" style="fill: rgb(0, 0, 0);"/><rect class="cls-1_report-analysis-5-38" x="220.94" y="323.49" width="37.98" height="27.29"/><path class="cls-12_report-analysis-5-38 targetColor" d="M208.07,245.73c-13.65-.04-24.74,10.99-24.78,24.64-.04,13.65,10.99,24.74,24.64,24.78v-8.61h-.1c-9.03,0-16.35-7.32-16.35-16.35,0-9.03,7.32-16.35,16.35-16.35,9.03,0,16.35,7.32,16.35,16.35h0c0,.78-.06,1.56-.18,2.34h8.69c.07-.69.11-1.39.1-2.09,0-13.64-11.05-24.7-24.69-24.71h-.02Z" style="fill: rgb(0, 0, 0);"/><path class="cls-12_report-analysis-5-38 targetColor" d="M232.68,272.83c-1.07,12.79-11.76,22.62-24.6,22.62h-.15v-8.6c8.09-.05,14.92-6.01,16.07-14.02h8.68Z" style="fill: rgb(0, 0, 0);"/><path class="cls-2_report-analysis-5-38" d="M232.68,272.53c-1.07,12.79-11.76,22.62-24.6,22.62h-.15v-8.61c8.09-.05,14.92-6,16.07-14.01h8.68Z"/></g><g id="bubble_report-analysis-5-38"><rect class="cls-5_report-analysis-5-38" x="371.1" y="225.36" width="78.68" height="77.2" rx="8.35" ry="8.35"/><rect class="cls-6_report-analysis-5-38" x="269.82" y="113.77" width="78.68" height="77.2" rx="8.35" ry="8.35"/><rect class="cls-4_report-analysis-5-38" x="77.6" y="105.16" width="78.68" height="77.2" rx="8.35" ry="8.35"/><rect class="cls-7_report-analysis-5-38" x="54.71" y="220.91" width="78.68" height="77.2" rx="8.35" ry="8.35"/><polygon class="cls-12_report-analysis-5-38 targetColor" points="331.58 311.93 330.71 311.71 345.36 255.42 371.77 255.42 371.77 256.33 346.06 256.33 331.58 311.93" style="fill: rgb(0, 0, 0);"/><polygon class="cls-12_report-analysis-5-38 targetColor" points="269.9 168.81 257.75 168.81 224.8 279.64 224.02 279.56 257.05 167.9 269.9 167.9 269.9 168.81" style="fill: rgb(0, 0, 0);"/><polygon class="cls-12_report-analysis-5-38 targetColor" points="206.25 253.66 177.22 162.6 154.56 162.6 154.56 161.7 177.88 161.7 177.98 162.02 207.11 253.38 206.25 253.66" style="fill: rgb(0, 0, 0);"/><polygon class="cls-12_report-analysis-5-38 targetColor" points="172.78 288.15 152.14 265.14 131.91 265.14 131.91 264.23 152.54 264.23 173.46 287.55 172.78 288.15" style="fill: rgb(0, 0, 0);"/></g><g id="character_report-analysis-5-38"><polygon class="cls-12_report-analysis-5-38 targetColor" points="146.92 298.3 158.43 274.14 185 289.67 166.71 327.41 152.44 319.47 146.92 298.3" style="fill: rgb(0, 0, 0);"/><polygon class="cls-10_report-analysis-5-38" points="149.1 295.89 158.77 277.14 180.63 289.91 164.06 323.16 152.79 314.53 149.1 295.89"/><path class="cls-9_report-analysis-5-38" d="M148.33,355.34l7.64,47.25-7.64,47.19,4.3,3.35-7.07-.3.61-48.78-13.19-34.36,1.6,35.68-7.69,46,3.35,1.83-7.67-.3,3.29-47.7-5.98-28.52s-5.28-20.73,0-24.11c5.28-3.38,28.44,2.76,28.44,2.76Z"/><path class="cls-12_report-analysis-5-38 targetColor" d="M120.41,284.46s18.57,2.08,23.17,5.43c4.6,3.35,9.36,8.68,9.36,12.97s1.84,25.46,1.84,25.46l7.67-17.79,4.29,2.45s-4.91,30.84-7.67,31.75-10.28-1.12-10.28-1.12l-.47,11.66s-25.16,2.45-28.52-2.76c-3.37-5.21-11.32-59.54.6-68.06Z" style="fill: rgb(0, 0, 0);"/><path class="cls-11_report-analysis-5-38" d="M136.36,278.64s-2.24,4.73-1.04,8.6c0,0-6.9-.94-7.1-1.76s.86-8.05.07-10.28,8.07,3.43,8.07,3.43Z"/><path class="cls-11_report-analysis-5-38" d="M128.94,259.38c2.72-1.12,10.15-2.8,12.9,8.31,2.75,11.1-1.43,11.64-5.76,11.68-4.33.04-11.62-6.99-12.3-9.26s-2.57-7.4,5.15-10.73Z"/><path class="cls-11_report-analysis-5-38" d="M162.84,305.39c0-.3.03-.6.11-.89.26-.82,1.12-1.26,1.59-1.99.24-.47.4-.97.45-1.5.04-.46.16-.91.37-1.33.21-.42.65-.68,1.12-.66.63.09.95.78,1.12,1.39,1.1,3.67.95,7.61-.45,11.18-.2.53-.57,1.12-1.12,1.12-.19-.02-.37-.09-.54-.19-1.12-.6-2.71-1.12-2.76-2.43-.06-1.6.08-3.16.11-4.7Z"/><path class="cls-12_report-analysis-5-38 targetColor" d="M165.44,301.49l-5.21-4.89-.46.92,4.77,5.01s.97-.34.89-1.04Z" style="fill: rgb(0, 0, 0);"/><path class="cls-8_report-analysis-5-38" d="M148.8,343.67s-2.69-1.12-3.61-8.94-2.07-15.88-2.07-15.88v36.78h6.14l-.46-11.96Z"/><path class="cls-9_report-analysis-5-38" d="M137.25,256.96c-.47-1.22-1.37-2.23-2.53-2.84-.86-.54-1.93-.6-2.84-.16-.55-.74-1.42-1.18-2.34-1.17-.76-.11-1.54,0-2.24.35-.71.38-1.1,1.17-.95,1.97-1.11-.16-2.24-.16-3.35,0-.35.03-.68.14-.98.31-.36.29-.63.68-.78,1.12-.61,1.41-.94,2.93-.95,4.47-1.17.84-1.9,2.16-1.98,3.6-.06,1.44.54,2.84,1.62,3.79-.43,1.48-.21,3.07.6,4.37.85,1.31,2.42,1.95,3.95,1.61,0,.67.09,1.49.7,1.79.22.09.45.13.68.11.66-.01,1.31-.15,1.91-.4-.12.52-.12,1.05,0,1.57.13.52.58.89,1.12.92.38-.08.73-.28.98-.57.73-.56,1.29-1.31,1.63-2.17.11-.8.18-1.61.2-2.43.18-.95.78-1.88.54-2.81s-1.02-1.34-1.61-1.96-.95-1.71-.3-2.24,1.6-.06,2.18.53c.29.28.7.6,1.04.39s.23-.66.11-1c-.32-.72-.58-1.47-.77-2.24-.2-.8.04-1.65.63-2.24.96-.82,2.52-.36,3.45-1.12.94-.76.63-2.59.27-3.57Z"/></g></svg>